<svg id="Layer_1" data-name="Layer 1" xmlns="http://www.w3.org/2000/svg" viewBox="0 0 160 160">
  <defs>
    <style>
      .cls-1 {
        fill: #99cf17;
      }

      .cls-2 {
        fill: #fff;
      }

      .cls-3 {
        fill: #ffd900;
      }

      .cls-4 {
        fill: #5ec4ec;
      }
    </style>
  </defs>
  <title>PSPO_2019_RGB_ROBO</title>
  <path d="M133.65,4H155a1.06,1.06,0,0,1,1.05,1V49.54a22.53,22.53,0,0,1-22.41,22.51H95.08a7.23,7.23,0,0,1-7.15-7.18V11.14A7.23,7.23,0,0,1,95.08,4Z"/>
  <path class="cls-1" d="M123,72V60l1,12h1.91l-1-12.11L127,72h1.94L126.74,59.5,130.06,72h2l-3.46-13,4.7,13h.33c.57,0,1.13,0,1.67-.07l-4.9-13.55,6.22,13.41c.66-.09,1.31-.2,1.95-.35l-6.44-13.87,7.78,13.52c.62-.19,1.23-.4,1.83-.64l-8-13.85L143,69.87q.87-.41,1.71-.9l-9.4-13.48L146,68.21a18.53,18.53,0,0,0,1.54-1.14L136.79,54.23l11.84,11.9c.27-.24.53-.5.79-.75s.38-.4.57-.6L138.17,52.9,151,63.67c.4-.49.79-1,1.15-1.54L139.37,51.41l13.5,9.49c.33-.55.63-1.12.92-1.7l-13.31-9.36,13.88,8a19.08,19.08,0,0,0,.65-1.84l-13.55-7.86,13.91,6.52c.16-.64.28-1.29.38-2l-13.5-6.32,13.65,5c0-.64.09-1.27.09-1.92v-.09L142.9,44.63,156,48.16v-2l-12.57-3.38L156,45V43.06l-12.25-2.18L156,42V40L143.9,39H156V37h-12.1L156,36V34.05l-12.27,1.08L156,33V31l-12.58,2.23L156,29.85v-2L142.9,31.38,156,26.59v-2l-13.73,5L156,23.14V21l-14.54,6.81L156,19.4V17.18l-15.52,9L156,15.26V12.92L139.4,24.58,156,10.6V8.09l-17.83,15L156,5.21V5.08a1.07,1.07,0,0,0-1-1h-.49L136.79,21.79,151.62,4h-2.5l-13.77,16.5L146.84,4H144.5l-10.73,15.4L142.63,4h-2.22l-8.29,14.43L138.82,4h-2.11l-6.33,13.63L135.32,4h-2l-4.7,13L132.05,4h-2L126.74,16.5,128.93,4H127l-2.13,12.14,1-12.14H124l-1,12V4H121V16L120,4h-1.91l1.06,12.15L117,4h-1.94l2.19,12.45L113.93,4h-2l3.47,13L110.7,4h-2l4.92,13.61L107.28,4h-2.11l6.7,14.43L103.58,4h-2.21l8.85,15.4L99.49,4H97.15l11.51,16.51L94.88,4.05a7,7,0,0,0-2.14.42L107.2,21.78,90.93,5.44a7.24,7.24,0,0,0-1.37,1.34l16.27,16.35L88.53,8.54a7,7,0,0,0-.5,2.09l16.56,14L88,12.92v2.34l15.5,10.92-15.5-9V19.4l14.53,8.43L88,21v2.12l13.71,6.43L88,24.55V26.6l13.08,4.79L88,27.86v2l12.57,3.39L88,31V33l12.27,2.18L88,34.05V36L100.08,37H88V39h12.07L88,40V42l12.26-1.08L88,43.06V45l12.57-2.22L88,46.16v2l13.08-3.53L88,49.42v2l13.72-5L88,52.87V55l14.55-6.81L88,56.62v2.21l15.5-9L88,60.75V63.1l16.6-11.69L88,65.38a6.88,6.88,0,0,0,.5,2.09l17.3-14.58L89.56,69.24a7.5,7.5,0,0,0,1.37,1.33l16.26-16.33L92.74,71.54a7,7,0,0,0,2.15.43l13.77-16.5L97.16,72h2.33l10.73-15.39L101.37,72h2.21l8.29-14.43L105.18,72h2.11l6.3-13.6L108.67,72h2l4.71-13-3.47,13h2l3.32-12.46L115.06,72h2l2.13-12.15L118.08,72H120L121,60V72Z"/>
  <path d="M84,11.2V64.81A11.19,11.19,0,0,0,95.14,76h38.48A26.51,26.51,0,0,0,160,49.51V5.08A5.06,5.06,0,0,0,155,0H95.14A11.2,11.2,0,0,0,84,11.2ZM133.62,4H155a1.07,1.07,0,0,1,1,1V49.51A22.48,22.48,0,0,1,133.62,72H95.14A7.19,7.19,0,0,1,88,64.81V11.2A7.19,7.19,0,0,1,95.14,4Z"/>
  <path d="M3.78,26.28V4.81a1.07,1.07,0,0,1,1.05-1H49.59a22.64,22.64,0,0,1,16,6.62,22.37,22.37,0,0,1,6.65,15.9V65.06A7.25,7.25,0,0,1,65,72.24H11a7.24,7.24,0,0,1-7.22-7.18Z"/>
  <path class="cls-2" d="M72,37.05H60l12-1V34.09l-12.11,1L72,33v-2L59.5,33.26,72,29.93V28L59,31.4l13-4.68v-.35c0-.56,0-1.11-.07-1.67L58.37,29.61l13.4-6.22c-.09-.66-.21-1.31-.35-1.95L57.55,27.88l13.52-7.77c-.18-.63-.4-1.24-.63-1.84l-13.86,8L69.87,17q-.41-.87-.9-1.71l-13.48,9.4L68.21,14c-.35-.54-.74-1-1.13-1.55L54.23,23.21,66.12,11.36l-.74-.78-.6-.57L52.9,21.83,63.67,9.05c-.5-.4-1-.79-1.54-1.15L51.4,20.63,60.91,7.12c-.56-.32-1.13-.63-1.71-.91L49.84,19.52l8-13.88c-.61-.25-1.22-.46-1.84-.65L48.19,18.54,54.7,4.62c-.63-.15-1.28-.28-1.94-.37l-6.33,13.5,5-13.65C50.79,4,50.16,4,49.5,4h-.08L44.63,17.1,48.15,4h-2L42.78,16.58,45,4h-2L40.88,16.26,42,4H40L39,16.09V4H37.05V16.1L36,4H34.05l1.09,12.27L33,4H31l2.23,12.57L29.85,4h-2L31.38,17.1,26.6,4H24.55l5,13.73L23.14,4H21l6.81,14.53L19.4,4H17.18l9,15.52L15.26,4H12.91L24.59,20.6,10.6,4H8.09l15,17.83L5.21,4H5.07a1.07,1.07,0,0,0-1,1v.49L21.79,23.21,4,8.38v2.5l16.5,13.77L4,13.16v2.33l15.4,10.73L4,17.38v2.2l14.43,8.3L4,21.18v2.11l13.63,6.33L4,24.68v2L17,31.4,4,28v2L16.5,33.26,4,31.07V33l12.13,2.13L4,34.09V36l12,1H4V39H16L4,40v1.92l12.15-1.06L4,43v1.94l12.45-2.19L4,46.08v2l13-3.46L4,49.3v2L17.64,46.4,4,52.72v2.11l14.43-6.7L4,56.42v2.21l15.39-8.84L4,60.51v2.34l16.5-11.5L4,65.12a6.9,6.9,0,0,0,.43,2.14L21.78,52.8,5.44,69.06a7.25,7.25,0,0,0,1.33,1.38L23.13,54.17,8.54,71.47a7.61,7.61,0,0,0,2.09.5l14-16.56L12.92,72h2.35l10.9-15.5-9,15.5H19.4l8.43-14.53L21,72h2.12l6.42-13.7-5,13.7H26.6l4.78-13.08L27.86,72h2l3.39-12.57L31,72H33l2.18-12.27L34.05,72H36l1.07-12.07V72H39V59.92L40,72H42L40.88,59.72,43.05,72h2L42.77,59.42,46.16,72h2L44.63,58.92,49.41,72h2l-5-13.73L52.87,72H55L48.17,57.45,56.61,72h2.22l-9-15.5L60.75,72h2.34L51.41,55.39,65.38,72a7.52,7.52,0,0,0,2.09-.5L52.89,54.16,69.24,70.44a7.25,7.25,0,0,0,1.33-1.38L54.24,52.81l17.3,14.45A7.34,7.34,0,0,0,72,65.11L55.48,51.35,72,62.85V60.51L56.59,49.78,72,58.63V56.42L57.55,48.13,72,54.83V52.71l-13.6-6.3L72,51.33v-2L59,44.59l13,3.46v-2L59.52,42.75,72,44.94V43L59.83,40.86,72,41.92V40L60,39H72Z"/>
  <path d="M11.19,76H64.81A11.18,11.18,0,0,0,76,64.86V26.37A26.49,26.49,0,0,0,49.5,0H5.07A5.07,5.07,0,0,0,0,5V64.86A11.19,11.19,0,0,0,11.19,76ZM4,26.37V5a1.06,1.06,0,0,1,1-1H49.5A22.48,22.48,0,0,1,72,26.37V64.86A7.19,7.19,0,0,1,64.81,72H11.19A7.19,7.19,0,0,1,4,64.86Z"/>
  <g>
    <path d="M25.82,38.41H23.93V42.1H22V32.3h3.8a3.06,3.06,0,1,1,0,6.11Zm-.1-4.4H23.93v2.68h1.79a1.29,1.29,0,0,0,1.42-1.33A1.31,1.31,0,0,0,25.72,34Z"/>
    <path d="M33.35,42.18a4.6,4.6,0,0,1-3.57-1.29L31,39.65a3.21,3.21,0,0,0,2.37.82c1.12,0,1.73-.42,1.73-1.21a1.07,1.07,0,0,0-.31-.82,1.44,1.44,0,0,0-.86-.35l-1.18-.16a3.34,3.34,0,0,1-1.9-.81,2.58,2.58,0,0,1-.7-1.93c0-1.75,1.29-3,3.41-3a4.19,4.19,0,0,1,3.16,1.14l-1.21,1.2a2.73,2.73,0,0,0-2-.68c-1,0-1.51.57-1.51,1.24a1,1,0,0,0,.29.71,1.71,1.71,0,0,0,.91.38l1.16.17a3.21,3.21,0,0,1,1.86.75A2.73,2.73,0,0,1,37,39.21C37,41.1,35.4,42.18,33.35,42.18Z"/>
    <path d="M42.57,38.41H40.69V42.1H38.77V32.3h3.8a3.06,3.06,0,1,1,0,6.11ZM42.48,34H40.69v2.68h1.79a1.29,1.29,0,0,0,1.41-1.33A1.3,1.3,0,0,0,42.48,34Z"/>
    <path d="M53.34,41.1a3.79,3.79,0,0,1-5.3,0c-1-1-1-2.21-1-3.9s0-2.92,1-3.91a3.82,3.82,0,0,1,5.3,0c1,1,1,2.22,1,3.91S54.33,40.12,53.34,41.1Zm-1.42-6.65a1.58,1.58,0,0,0-1.22-.52,1.61,1.61,0,0,0-1.24.52c-.37.41-.47.87-.47,2.75s.1,2.34.47,2.75a1.61,1.61,0,0,0,1.24.52A1.58,1.58,0,0,0,51.92,40c.37-.41.48-.86.48-2.75S52.29,34.86,51.92,34.45Z"/>
  </g>
  <path d="M26.34,156H5a1.06,1.06,0,0,1-1-1V110.47A22.53,22.53,0,0,1,26.34,88H64.92a7.22,7.22,0,0,1,7.15,7.19v53.72A7.21,7.21,0,0,1,64.92,156Z"/>
  <path d="M76,148.81V95.19A11.19,11.19,0,0,0,64.86,84H26.37A26.5,26.5,0,0,0,0,110.49v44.43A5.07,5.07,0,0,0,5.05,160H64.86A11.19,11.19,0,0,0,76,148.81ZM26.37,156H5.05a1.07,1.07,0,0,1-1-1.05V110.49a22.43,22.43,0,0,1,6.57-15.86A22.17,22.17,0,0,1,26.37,88H64.86A7.19,7.19,0,0,1,72,95.19v53.62A7.19,7.19,0,0,1,64.86,156Z"/>
  <path d="M156.22,133.72V155.2a1.07,1.07,0,0,1-1.05,1.05H110.42a22.67,22.67,0,0,1-22.65-22.53V94.94A7.26,7.26,0,0,1,95,87.75h54a7.24,7.24,0,0,1,7.21,7.19Z"/>
  <path class="cls-3" d="M88,123h12l-12,1v1.92l12.11-1.06L88,127v1.94l12.48-2.19L88,130.07v2L101,128.6,88,133.29v.34c0,.57,0,1.12.06,1.67l13.56-4.91-13.42,6.22q.13,1,.36,1.95l13.87-6.43-13.52,7.76c.18.63.39,1.24.63,1.85l13.85-8L90.13,143c.28.58.58,1.16.9,1.71l13.48-9.39L91.79,146c.36.52.74,1,1.14,1.54l12.85-10.73-11.9,11.85c.24.26.49.53.75.78s.4.39.6.58l11.88-11.83L96.33,151c.5.39,1,.78,1.55,1.14l10.72-12.72-9.5,13.49c.55.33,1.12.64,1.7.92l9.37-13.31-8.06,13.89c.61.24,1.22.45,1.85.65l7.85-13.55-6.52,13.91c.64.15,1.3.28,2,.38l6.32-13.51-5,13.65q.94.09,1.92.09h.09l4.78-13.09L111.85,156h2l3.39-12.57L115,156h2l2.17-12.25L118.05,156H120L121,143.9V156H123V143.9L124,156H126l-1.09-12.27L127.05,156h2l-2.23-12.57L130.15,156h2l-3.53-13.08L133.41,156h2.05l-5-13.72L136.87,156H139l-6.81-14.53L140.61,156h2.21l-9-15.52L144.74,156h2.35l-11.67-16.58,14,16.58h2.51l-15-17.82L154.79,156h.14a1.06,1.06,0,0,0,1-1v-.5l-17.75-17.67L156,151.62v-2.49l-16.49-13.78L156,146.85v-2.34l-15.39-10.73L156,142.63v-2.21l-14.43-8.29,14.43,6.7v-2.12l-13.62-6.32L156,135.33v-2L143,128.6,156,132.05v-2l-12.47-3.32L156,128.93V127l-12.13-2.13L156,125.92V124l-12-1h12V121H144L156,120v-1.92l-12.15,1.06L156,117v-1.94l-12.44,2.19L156,113.93v-2l-13,3.46,13-4.7v-2l-13.6,4.93,13.6-6.31v-2.11l-14.42,6.69L156,103.58v-2.21l-15.39,8.84L156,99.49V97.15l-16.5,11.51L156,94.88a7,7,0,0,0-.43-2.14L138.22,107.2l16.35-16.27a7.61,7.61,0,0,0-1.34-1.38l-16.35,16.28,14.58-17.3a6.8,6.8,0,0,0-2.09-.49l-14,16.56L147.09,88h-2.35l-10.91,15.5,9-15.5h-2.21l-8.44,14.54L139,88h-2.12l-6.42,13.71,5-13.71h-2.05l-4.79,13.08L132.14,88h-2l-3.38,12.57L129,88h-2l-2.18,12.27L126,88H124L123,100.09V88H121v12.08L120,88h-1.93l1.08,12.27L117,88h-2l2.23,12.58L113.84,88h-2l3.52,13.08L110.59,88h-2l5,13.73L107.14,88H105l6.82,14.55L103.39,88h-2.22l9,15.5L99.26,88H96.91l11.68,16.6L94.62,88a7.33,7.33,0,0,0-2.09.49l14.59,17.31L90.76,89.56a7.85,7.85,0,0,0-1.33,1.37l16.33,16.27L88.46,92.74A7.33,7.33,0,0,0,88,94.88l16.49,13.78L88,97.16v2.33l15.39,10.73L88,101.38v2.2l14.42,8.29L88,105.18v2.11l13.59,6.31L88,108.67v2l13,4.7L88,112v2l12.45,3.32L88,115.06V117l12.14,2.14L88,118.08V120l12,1H88Z"/>
  <path d="M148.81,84H95.2A11.19,11.19,0,0,0,84,95.14v38.49A26.5,26.5,0,0,0,110.5,160h44.43a5.06,5.06,0,0,0,5.07-5V95.14A11.18,11.18,0,0,0,148.81,84ZM156,133.63V155a1.06,1.06,0,0,1-1,1H110.5a22.44,22.44,0,0,1-15.87-6.57A22.21,22.21,0,0,1,88,133.63V95.14A7.18,7.18,0,0,1,95.2,88h53.61A7.18,7.18,0,0,1,156,95.14Z"/>
  <path class="cls-4" d="M37.05,88v12L36,88H34.08l1.06,12.11L33,88H31.07l2.19,12.48L29.93,88H28L31.41,101,26.72,88h-.35c-.56,0-1.11,0-1.66.06l4.9,13.55L23.39,88.23c-.66.09-1.3.21-1.95.35l6.44,13.88L20.1,88.94c-.62.18-1.23.39-1.84.63l8,13.85L17,90.13c-.58.28-1.15.57-1.71.9l9.4,13.48L14,91.79c-.54.36-1,.74-1.55,1.14l10.74,12.84L11.37,93.87l-.79.76c-.2.19-.38.39-.57.6L21.83,107.1,9.05,96.33c-.41.5-.79,1-1.15,1.54L20.63,108.6,7.12,99.1c-.32.55-.63,1.12-.91,1.71l13.31,9.35-13.88-8c-.24.6-.46,1.22-.66,1.84l13.56,7.86L4.63,105.3c-.16.64-.28,1.28-.38,1.94l13.5,6.33-13.65-5c0,.64-.09,1.28-.09,1.92v.1l13.09,4.78L4,111.85v2l12.57,3.38L4,115v2l12.25,2.17L4,118V120L16.09,121H4V123H16.1L4,124V126l12.27-1.08L4,127.05V129l12.57-2.22L4,130.15v2l13.09-3.51L4,133.4v2l13.73-5L4,136.86V139l14.53-6.8L4,140.6v2.23l15.52-9L4,144.74v2.34L20.6,135.42,4,149.4v2.51l17.83-15L4,154.79v.13a1.07,1.07,0,0,0,1,1.05h.49l17.68-17.76L8.38,156h2.49l13.78-16.49L13.16,156h2.33l10.73-15.4L17.37,156h2.21l8.3-14.43L21.18,156h2.11l6.32-13.63L24.68,156h2L31.41,143,28,156h2l3.33-12.47L31.07,156H33l2.13-12.13L34.08,156H36l1-12v12H39V144L40,156h1.92l-1.06-12.15L43,156h1.95l-2.19-12.45L46.07,156h2l-3.46-13,4.7,13h2l-4.92-13.61L52.72,156h2.11l-6.7-14.42L56.42,156h2.21l-8.84-15.39L60.52,156h2.33L51.34,139.46,65.12,156a6.9,6.9,0,0,0,2.14-.42L52.8,138.22l16.27,16.34a7.5,7.5,0,0,0,1.37-1.33L54.16,136.88l17.31,14.58a7.18,7.18,0,0,0,.5-2.09l-16.56-14L72,147.08v-2.35l-15.5-10.9,15.5,9V140.6l-14.54-8.43L72,139v-2.12l-13.71-6.42,13.71,5v-2l-13.08-4.78L72,132.14v-2l-12.57-3.38L72,129v-2l-12.27-2.17L72,126V124L59.92,123H72V121H59.92L72,120V118l-12.27,1.08L72,117v-2l-12.57,2.23L72,113.84v-2l-13.08,3.52L72,110.59v-2l-13.73,5L72,107.13V105l-14.54,6.82L72,103.39v-2.22l-15.49,9L72,99.26V96.91l-16.6,11.68L72,94.62a7.61,7.61,0,0,0-.5-2.09L54.16,107.12,70.44,90.76a7.5,7.5,0,0,0-1.37-1.33L52.8,105.76l14.46-17.3A6.62,6.62,0,0,0,65.12,88L51.34,104.53,62.85,88H60.51L49.78,103.42,58.63,88H56.42l-8.29,14.42L54.82,88h-2.1l-6.31,13.59L51.33,88h-2l-4.7,13,3.46-13h-2l-3.32,12.45L44.94,88H43l-2.13,12.14L41.92,88H40l-1,12V88Z"/>
  <g>
    <path d="M26.21,126.9v-9.8h1.92v8.09h4.44v1.71Z"/>
    <path d="M39.7,125.9a3.79,3.79,0,0,1-5.3,0c-1-1-1-2.21-1-3.9s0-2.92,1-3.91a3.82,3.82,0,0,1,5.3,0c1,1,1,2.22,1,3.91S40.69,124.91,39.7,125.9Zm-1.42-6.65a1.56,1.56,0,0,0-1.22-.52,1.59,1.59,0,0,0-1.24.52c-.37.41-.47.86-.47,2.75s.1,2.34.47,2.75a1.59,1.59,0,0,0,1.24.52,1.56,1.56,0,0,0,1.22-.52c.37-.41.48-.87.48-2.75S38.65,119.66,38.28,119.25Z"/>
    <path d="M48.42,126.9l-3.88-6v6H42.63v-9.8h1.71l3.88,6v-6h1.91v9.8Z"/>
  </g>
  <g>
    <path d="M113.81,42.18a4.6,4.6,0,0,1-3.58-1.3l1.24-1.23a3.25,3.25,0,0,0,2.37.82c1.12,0,1.73-.43,1.73-1.21a1.1,1.1,0,0,0-.3-.82,1.5,1.5,0,0,0-.87-.35l-1.18-.16a3.41,3.41,0,0,1-1.9-.81,2.6,2.6,0,0,1-.7-1.93c0-1.75,1.29-3,3.41-3a4.19,4.19,0,0,1,3.16,1.14L116,34.56a2.74,2.74,0,0,0-2-.68c-1,0-1.51.57-1.51,1.24a.92.92,0,0,0,.29.7,1.71,1.71,0,0,0,.91.39l1.15.16a3.22,3.22,0,0,1,1.87.76,2.71,2.71,0,0,1,.76,2.08C117.44,41.1,115.86,42.18,113.81,42.18Z"/>
    <path d="M121.86,42.18a4.6,4.6,0,0,1-3.58-1.3l1.24-1.23a3.25,3.25,0,0,0,2.37.82c1.12,0,1.73-.43,1.73-1.21a1.1,1.1,0,0,0-.3-.82,1.5,1.5,0,0,0-.87-.35l-1.18-.16a3.41,3.41,0,0,1-1.9-.81,2.6,2.6,0,0,1-.7-1.93c0-1.75,1.29-3,3.41-3a4.19,4.19,0,0,1,3.16,1.14L124,34.56a2.74,2.74,0,0,0-2-.68c-1,0-1.51.57-1.51,1.24a.92.92,0,0,0,.29.7,1.71,1.71,0,0,0,.91.39l1.15.16a3.22,3.22,0,0,1,1.87.76,2.71,2.71,0,0,1,.76,2.08C125.49,41.1,123.91,42.18,121.86,42.18Z"/>
    <path d="M131.09,38.41h-1.88v3.68H127.3V32.3h3.79a3.06,3.06,0,1,1,0,6.11ZM131,34h-1.79v2.68H131A1.34,1.34,0,1,0,131,34Z"/>
  </g>
  <g>
    <path d="M119.83,127v-5.81l-1.9,3.78h-1.31l-1.92-3.78V127h-1.94V117h1.91l2.61,5.38,2.58-5.38h1.92v10Z"/>
    <path d="M129.77,127l-.59-1.77h-3.54L125,127h-2l3.62-10h1.52l3.64,10Zm-2.32-7-1.26,3.62h2.47Z"/>
  </g>
</svg>
